<?xml version="1.0" encoding="utf-8"?>
<!-- Generator: Adobe Illustrator 23.0.0, SVG Export Plug-In . SVG Version: 6.00 Build 0)  -->
<svg version="1.1" id="Layer_1" xmlns="http://www.w3.org/2000/svg" xmlns:xlink="http://www.w3.org/1999/xlink" x="0px" y="0px"
	 viewBox="0 0 1443 696" style="enable-background:new 0 0 1443 696;" xml:space="preserve">
<style type="text/css">
	.st0{fill:#FFFFFF;}
</style>
<g>
	<path d="M15.39,579.52c0-138.32,0-276.05,0-414.35c2.4,0,4.52,0,6.64,0c77.67,0,155.34,0.59,232.99-0.24
		c40.79-0.44,63.28,22.54,73.94,55.53c3.21,9.92,4.55,20.03,4.47,30.48c-0.21,27-0.29,54,0.05,81c0.12,9.34-2.6,16.75-9.57,23.04
		c-5.88,5.32-11.15,11.32-16.58,16.92c5.22,4.63,10.18,8.32,14.27,12.79c7.81,8.56,11.68,18.92,11.7,30.54
		c0.06,30.67,0.14,61.33-0.02,92c-0.16,30.77-15.92,51.26-43.07,63.89c-12.24,5.7-25.14,8.45-38.71,8.44
		c-76.83-0.07-153.66-0.04-230.5-0.04C19.2,579.52,17.41,579.52,15.39,579.52z M106.16,326.69c0.7,0.19,1.16,0.43,1.62,0.43
		c37.33-0.02,74.66,0.09,111.98-0.22c8.43-0.07,16.31-3.18,23.24-8.16c5.86-4.21,9.64-9.95,9.78-17.18
		c0.18-9.8,0.23-19.69-0.82-29.42c-2-18.57-11.13-26.28-29.81-26.29c-36.99-0.02-73.99-0.01-110.98,0c-1.61,0-3.23,0.16-5.01,0.25
		C106.16,273.18,106.16,299.92,106.16,326.69z M106.08,493.9c1.18,0.12,1.83,0.25,2.48,0.25c35.46,0,70.93,0.03,106.39-0.03
		c8.81-0.01,17.13-2.25,24.88-6.41c7.7-4.14,12.71-10.53,12.95-19.39c0.27-9.79,0.21-19.67-0.84-29.39
		c-1.96-18.11-11.28-25.91-29.62-25.92c-36.96-0.02-73.93-0.01-110.89-0.01c-1.76,0-3.52,0-5.35,0
		C106.08,440.31,106.08,466.9,106.08,493.9z"/>
	<path d="M697.65,682.99c-12.23-12.32-23.81-25.22-36.68-36.67c-21.97-19.54-47.63-33.51-74.52-44.98
		c-47.51-20.28-97.41-31.59-148.59-37.3c-19.18-2.14-38.5-2.95-57.76-4.36c-1.65-0.12-3.29-0.23-5.53-0.39
		c-0.12-2.38-0.32-4.62-0.35-6.87c-1.51-122.29-3.01-244.59-4.52-366.88c-0.07-5.33-0.07-10.67-0.38-15.99
		c-0.18-3.22,0.88-4.39,4.19-4.46c30.17-0.56,60.31-0.25,90.35,3.11c34.53,3.86,68.33,10.96,101.09,22.68
		c43,15.39,82.11,37.18,114.34,70.15c0.47,0.48,0.95,0.93,1.42,1.41c16.63,16.86,16.93,17.58,16.93,41.09
		c0,124.64,0,249.28,0,373.91C697.65,679.54,697.65,681.64,697.65,682.99z M455.18,250.93c0,81.55,0,162.13,0,243.13
		c56.69-2.06,109,11.31,156.94,42.94c0-2.79,0-4.76,0-6.73c0-65.17,0-130.33,0-195.5c0-23.16,0.19-23.47-19.53-35.85
		C550.64,272.57,503.29,261.62,455.18,250.93z"/>
	<path d="M728.7,683.05c0-1.32,0-3.07,0-4.82c0-129.8,0.02-259.61-0.09-389.41c0-4.31,1.26-7.69,3.77-10.96
		c15.02-19.44,33.21-35.47,53.43-49.23c45.6-31.05,96.65-47.69,150.57-56.76c38.29-6.44,76.85-7.6,115.56-6.81
		c3.91,0.08,5.05,1.2,4.99,5.17c-1.22,84.97-2.31,169.94-3.4,254.91c-0.55,42.32-1.06,84.64-1.58,126.96c-0.03,2.16,0,4.31,0,7.1
		c-3.15,0.21-6.05,0.5-8.96,0.59c-58.25,1.86-115.27,11.05-170.69,29.25c-39.86,13.09-77.24,31.18-109.06,58.99
		C751,658.7,740.33,671.15,728.7,683.05z M971.05,252.02c-1.41,0.07-2.56-0.02-3.64,0.19c-37.34,7.29-73.85,17.39-108.62,33.08
		c-15.07,6.8-29.3,15.08-41.43,26.59c-2.48,2.36-3.43,4.83-3.43,8.28c0.1,70.49,0.07,140.98,0.07,211.47c0,1.58,0,3.15,0,5.53
		c48.12-31.69,100.37-45.31,157.04-43.1C971.05,413.11,971.05,332.71,971.05,252.02z"/>
	<path d="M1189.95,326.46c22.17-27.27,44.36-54.54,66.52-81.82c19.12-23.54,38.17-47.12,57.4-70.57c1.38-1.69,3.96-3.4,5.98-3.41
		c33.5-0.2,67-0.14,100.49-0.12c0.65,0,1.29,0.19,2.94,0.44c-52.91,68.31-105.46,136.16-158.13,204.16
		c54.52,68.18,108.79,136.05,163.59,204.58c-2.37,0.12-3.93,0.26-5.5,0.26c-32,0.01-64-0.06-96,0.1c-3.87,0.02-6.34-1.11-8.75-4.17
		c-41.52-52.55-83.16-105-124.78-157.47c-1.3-1.64-2.69-3.2-4.92-5.84c0,56.5,0,111.69,0,167.14c-32.04,0-63.49,0-95.35,0
		c0-136.13,0-272.33,0-408.88c31.61,0,63.16,0,95.31,0c0,51.98,0,103.68,0,155.39C1189.16,326.32,1189.56,326.39,1189.95,326.46z"/>
	<path d="M726.64,243.4c2.26-5.62,4.17-11.42,6.85-16.82c17.16-34.54,42.41-62.33,72.66-85.77c35.17-27.25,74.8-45.8,117.18-58.59
		c17.16-5.17,34.66-9.19,52.43-13.84c0,25.86,0,50.81,0,75.86C881.24,147.97,800.25,185.63,726.64,243.4z"/>
	<path d="M699.48,244.36c-73.55-58.17-153.85-96.35-248.49-100.1c0-24.7,0-49.72,0-75.86c17.54,4.59,34.83,8.58,51.8,13.68
		c43.06,12.94,83.32,31.7,118.85,59.7c29.93,23.58,54.97,51.33,71.88,85.82c2.04,4.16,3.5,8.62,5.16,12.96
		C699.02,241.45,699.09,242.45,699.48,244.36z"/>
	<path d="M735.38,194.77c-3.35-11.73-2.08-22.46,0.14-33.09c6.04-28.99,21-53.38,40-75.48c23.47-27.3,51.99-48.58,82.17-67.8
		c0.4-0.26,0.91-0.35,1.86-0.7c0.13,1.56,0.34,2.94,0.34,4.31c0.02,18.83-0.1,37.65,0.11,56.48c0.04,3.75-1.31,5.55-4.5,7.23
		c-31.07,16.43-59.74,36.26-85.02,60.81C756.28,160.33,744.37,175.82,735.38,194.77z"/>
	<path d="M691.75,192.76c-8.09-11.36-15.49-23.25-24.38-33.89c-18.52-22.18-41.41-39.44-65.6-54.96
		c-10.35-6.64-21.19-12.51-31.72-18.87c-1.35-0.82-3.12-2.48-3.13-3.77c-0.2-20.97-0.14-41.94-0.14-63.39
		c1.31,0.5,2.26,0.69,3.02,1.18c30.41,19.47,59.12,41.03,82.53,68.84c18.76,22.28,33.54,46.77,39.1,75.89
		C693.29,173.57,694.14,183.45,691.75,192.76z"/>
	<path class="st0" d="M106.16,326.69c0-26.78,0-53.51,0-80.59c1.78-0.09,3.4-0.25,5.01-0.25c36.99-0.01,73.99-0.03,110.98,0
		c18.68,0.01,27.81,7.72,29.81,26.29c1.05,9.73,1,19.62,0.82,29.42c-0.14,7.23-3.93,12.97-9.78,17.18
		c-6.93,4.99-14.81,8.09-23.24,8.16c-37.33,0.31-74.65,0.2-111.98,0.22C107.32,327.12,106.86,326.88,106.16,326.69z"/>
	<path class="st0" d="M106.08,493.9c0-27,0-53.59,0-80.9c1.83,0,3.59,0,5.35,0c36.96,0,73.93-0.01,110.89,0.01
		c18.34,0.01,27.66,7.81,29.62,25.92c1.05,9.72,1.1,19.6,0.84,29.39c-0.24,8.86-5.25,15.25-12.95,19.39
		c-7.74,4.16-16.07,6.4-24.88,6.41c-35.46,0.06-70.93,0.04-106.39,0.03C107.91,494.15,107.26,494.03,106.08,493.9z"/>
	<path class="st0" d="M455.18,250.93c48.11,10.69,95.47,21.64,137.41,47.99c19.72,12.39,19.53,12.69,19.53,35.85
		c0,65.17,0,130.33,0,195.5c0,1.97,0,3.94,0,6.73c-47.94-31.63-100.25-45-156.94-42.94C455.18,413.06,455.18,332.48,455.18,250.93z"
		/>
	<path class="st0" d="M971.05,252.02c0,80.69,0,161.09,0,242.04c-56.67-2.2-108.93,11.42-157.04,43.1c0-2.37,0-3.95,0-5.53
		c0-70.49,0.02-140.98-0.07-211.47c0-3.45,0.95-5.93,3.43-8.28c12.13-11.51,26.36-19.79,41.43-26.59
		c34.76-15.69,71.27-25.79,108.62-33.08C968.49,252,969.64,252.08,971.05,252.02z"/>
</g>
</svg>
